<mxfile host="app.diagrams.net" modified="2024-04-27T15:17:41.706Z" agent="Mozilla/5.0 (Windows NT 10.0; Win64; x64) AppleWebKit/537.36 (KHTML, like Gecko) Chrome/123.0.0.0 Safari/537.36 Edg/123.0.0.0" etag="GKUDQDOKN-TrwyLWH9OI" version="24.2.8" type="device" pages="2">
  <diagram id="gzI67L0TCMLhXF_EFv6m" name="軟體架構">
    <mxGraphModel dx="1405" dy="1594" grid="1" gridSize="10" guides="1" tooltips="1" connect="1" arrows="1" fold="1" page="1" pageScale="1" pageWidth="827" pageHeight="1169" math="0" shadow="0">
      <root>
        <mxCell id="0" />
        <mxCell id="1" parent="0" />
        <mxCell id="AVZDPA1yqYgUO-4nn_VJ-1" value="" style="rounded=0;whiteSpace=wrap;html=1;" parent="1" vertex="1">
          <mxGeometry x="-80" y="-10" width="440" height="260" as="geometry" />
        </mxCell>
        <mxCell id="nu3hjA2DukSbiA5tO7RB-2" value="&lt;font color=&quot;#808080&quot; style=&quot;font-size: 9px;&quot;&gt;&lt;i style=&quot;&quot;&gt;&lt;b style=&quot;&quot;&gt;Adapters&lt;/b&gt;&lt;/i&gt;&lt;/font&gt;" style="rounded=0;whiteSpace=wrap;html=1;" parent="1" vertex="1">
          <mxGeometry x="280" y="210" width="70" height="30" as="geometry" />
        </mxCell>
        <mxCell id="9Bgfrbo9Ds4XW8nlcJ_0-6" style="edgeStyle=orthogonalEdgeStyle;rounded=0;orthogonalLoop=1;jettySize=auto;html=1;exitX=1;exitY=0.5;exitDx=0;exitDy=0;entryX=0;entryY=0.5;entryDx=0;entryDy=0;curved=1;" edge="1" parent="1" source="nu3hjA2DukSbiA5tO7RB-3" target="nu3hjA2DukSbiA5tO7RB-6">
          <mxGeometry relative="1" as="geometry">
            <Array as="points">
              <mxPoint x="250" y="120" />
            </Array>
          </mxGeometry>
        </mxCell>
        <mxCell id="nu3hjA2DukSbiA5tO7RB-3" value="Query Resolver" style="rounded=0;whiteSpace=wrap;html=1;" parent="1" vertex="1">
          <mxGeometry x="140" y="190" width="110" height="50" as="geometry" />
        </mxCell>
        <mxCell id="9Bgfrbo9Ds4XW8nlcJ_0-4" style="edgeStyle=orthogonalEdgeStyle;rounded=0;orthogonalLoop=1;jettySize=auto;html=1;exitX=1;exitY=0.5;exitDx=0;exitDy=0;entryX=0;entryY=0.5;entryDx=0;entryDy=0;curved=1;" edge="1" parent="1" source="nu3hjA2DukSbiA5tO7RB-4" target="nu3hjA2DukSbiA5tO7RB-6">
          <mxGeometry relative="1" as="geometry">
            <Array as="points">
              <mxPoint x="250" y="120" />
            </Array>
          </mxGeometry>
        </mxCell>
        <mxCell id="nu3hjA2DukSbiA5tO7RB-4" value="Mutation Resolver" style="rounded=0;whiteSpace=wrap;html=1;" parent="1" vertex="1">
          <mxGeometry x="140" y="130" width="110" height="50" as="geometry" />
        </mxCell>
        <mxCell id="nu3hjA2DukSbiA5tO7RB-5" value="MongoDB Repo" style="rounded=0;whiteSpace=wrap;html=1;" parent="1" vertex="1">
          <mxGeometry x="-50" width="110" height="50" as="geometry" />
        </mxCell>
        <mxCell id="XleAL6ZBAnFnf9mCYfTB-18" style="edgeStyle=orthogonalEdgeStyle;rounded=0;orthogonalLoop=1;jettySize=auto;html=1;exitX=1;exitY=0.5;exitDx=0;exitDy=0;entryX=0;entryY=0.5;entryDx=0;entryDy=0;" parent="1" source="nu3hjA2DukSbiA5tO7RB-6" target="XleAL6ZBAnFnf9mCYfTB-5" edge="1">
          <mxGeometry relative="1" as="geometry" />
        </mxCell>
        <mxCell id="nu3hjA2DukSbiA5tO7RB-6" value="" style="rounded=0;whiteSpace=wrap;html=1;" parent="1" vertex="1">
          <mxGeometry x="460" y="-10" width="320" height="260" as="geometry" />
        </mxCell>
        <mxCell id="nu3hjA2DukSbiA5tO7RB-7" value="&lt;font color=&quot;#808080&quot; style=&quot;font-size: 9px;&quot;&gt;&lt;i style=&quot;&quot;&gt;&lt;b style=&quot;&quot;&gt;Application&lt;/b&gt;&lt;/i&gt;&lt;/font&gt;" style="rounded=0;whiteSpace=wrap;html=1;" parent="1" vertex="1">
          <mxGeometry x="700" y="210" width="70" height="30" as="geometry" />
        </mxCell>
        <mxCell id="XleAL6ZBAnFnf9mCYfTB-1" value="Room Service" style="rounded=0;whiteSpace=wrap;html=1;" parent="1" vertex="1">
          <mxGeometry x="490" y="90" width="120" height="60" as="geometry" />
        </mxCell>
        <mxCell id="XleAL6ZBAnFnf9mCYfTB-2" value="Event Service" style="rounded=0;whiteSpace=wrap;html=1;" parent="1" vertex="1">
          <mxGeometry x="630" y="90" width="120" height="60" as="geometry" />
        </mxCell>
        <mxCell id="XleAL6ZBAnFnf9mCYfTB-3" value="Notification Service" style="rounded=0;whiteSpace=wrap;html=1;" parent="1" vertex="1">
          <mxGeometry x="490" y="10" width="120" height="60" as="geometry" />
        </mxCell>
        <mxCell id="XleAL6ZBAnFnf9mCYfTB-4" value="File Service" style="rounded=0;whiteSpace=wrap;html=1;" parent="1" vertex="1">
          <mxGeometry x="630" y="10" width="120" height="60" as="geometry" />
        </mxCell>
        <mxCell id="XleAL6ZBAnFnf9mCYfTB-5" value="" style="rounded=0;whiteSpace=wrap;html=1;" parent="1" vertex="1">
          <mxGeometry x="840" y="-10" width="350" height="260" as="geometry" />
        </mxCell>
        <mxCell id="XleAL6ZBAnFnf9mCYfTB-6" value="&lt;font color=&quot;#808080&quot; style=&quot;font-size: 9px;&quot;&gt;&lt;i style=&quot;&quot;&gt;&lt;b style=&quot;&quot;&gt;Domain&lt;/b&gt;&lt;/i&gt;&lt;/font&gt;" style="rounded=0;whiteSpace=wrap;html=1;" parent="1" vertex="1">
          <mxGeometry x="1110" y="210" width="70" height="30" as="geometry" />
        </mxCell>
        <mxCell id="XleAL6ZBAnFnf9mCYfTB-7" value="Room" style="rounded=0;whiteSpace=wrap;html=1;" parent="1" vertex="1">
          <mxGeometry x="880" y="30" width="120" height="60" as="geometry" />
        </mxCell>
        <mxCell id="XleAL6ZBAnFnf9mCYfTB-8" value="Event" style="rounded=0;whiteSpace=wrap;html=1;" parent="1" vertex="1">
          <mxGeometry x="880" y="110" width="120" height="60" as="geometry" />
        </mxCell>
        <mxCell id="XleAL6ZBAnFnf9mCYfTB-9" value="User" style="rounded=0;whiteSpace=wrap;html=1;" parent="1" vertex="1">
          <mxGeometry x="1030" y="110" width="120" height="60" as="geometry" />
        </mxCell>
        <mxCell id="XleAL6ZBAnFnf9mCYfTB-10" value="Repository Interface" style="rounded=0;whiteSpace=wrap;html=1;" parent="1" vertex="1">
          <mxGeometry x="1030" y="30" width="120" height="60" as="geometry" />
        </mxCell>
        <mxCell id="XleAL6ZBAnFnf9mCYfTB-13" style="edgeStyle=orthogonalEdgeStyle;rounded=0;orthogonalLoop=1;jettySize=auto;html=1;exitX=0.5;exitY=0;exitDx=0;exitDy=0;curved=1;entryX=0.5;entryY=0;entryDx=0;entryDy=0;dashed=1;" parent="1" source="XleAL6ZBAnFnf9mCYfTB-11" target="XleAL6ZBAnFnf9mCYfTB-4" edge="1">
          <mxGeometry relative="1" as="geometry">
            <Array as="points">
              <mxPoint x="135" y="-80" />
              <mxPoint x="690" y="-80" />
            </Array>
          </mxGeometry>
        </mxCell>
        <mxCell id="XleAL6ZBAnFnf9mCYfTB-11" value="GCS Client" style="rounded=0;whiteSpace=wrap;html=1;" parent="1" vertex="1">
          <mxGeometry x="80" width="110" height="50" as="geometry" />
        </mxCell>
        <mxCell id="XleAL6ZBAnFnf9mCYfTB-14" style="edgeStyle=orthogonalEdgeStyle;rounded=0;orthogonalLoop=1;jettySize=auto;html=1;exitX=1;exitY=0.5;exitDx=0;exitDy=0;entryX=0.5;entryY=0;entryDx=0;entryDy=0;curved=1;dashed=1;" parent="1" source="XleAL6ZBAnFnf9mCYfTB-12" target="XleAL6ZBAnFnf9mCYfTB-3" edge="1">
          <mxGeometry relative="1" as="geometry">
            <Array as="points">
              <mxPoint x="360" y="85" />
              <mxPoint x="360" y="-30" />
              <mxPoint x="550" y="-30" />
            </Array>
          </mxGeometry>
        </mxCell>
        <mxCell id="XleAL6ZBAnFnf9mCYfTB-12" value="Email Notification" style="rounded=0;whiteSpace=wrap;html=1;" parent="1" vertex="1">
          <mxGeometry x="80" y="60" width="110" height="50" as="geometry" />
        </mxCell>
        <mxCell id="XleAL6ZBAnFnf9mCYfTB-15" style="edgeStyle=orthogonalEdgeStyle;rounded=0;orthogonalLoop=1;jettySize=auto;html=1;exitX=0.5;exitY=0;exitDx=0;exitDy=0;entryX=0.5;entryY=0;entryDx=0;entryDy=0;curved=1;dashed=1;" parent="1" source="nu3hjA2DukSbiA5tO7RB-5" target="XleAL6ZBAnFnf9mCYfTB-10" edge="1">
          <mxGeometry relative="1" as="geometry">
            <Array as="points">
              <mxPoint x="5" y="-140" />
              <mxPoint x="1090" y="-140" />
            </Array>
          </mxGeometry>
        </mxCell>
        <mxCell id="XleAL6ZBAnFnf9mCYfTB-19" value="implement" style="text;html=1;align=center;verticalAlign=middle;whiteSpace=wrap;rounded=0;" parent="1" vertex="1">
          <mxGeometry x="520" y="-170" width="60" height="30" as="geometry" />
        </mxCell>
        <mxCell id="XleAL6ZBAnFnf9mCYfTB-20" value="implement" style="text;html=1;align=center;verticalAlign=middle;whiteSpace=wrap;rounded=0;" parent="1" vertex="1">
          <mxGeometry x="370" y="-120" width="60" height="30" as="geometry" />
        </mxCell>
        <mxCell id="XleAL6ZBAnFnf9mCYfTB-21" value="implement" style="text;html=1;align=center;verticalAlign=middle;whiteSpace=wrap;rounded=0;" parent="1" vertex="1">
          <mxGeometry x="430" y="-60" width="60" height="30" as="geometry" />
        </mxCell>
        <mxCell id="XleAL6ZBAnFnf9mCYfTB-22" value="OAuth Service" style="rounded=0;whiteSpace=wrap;html=1;" parent="1" vertex="1">
          <mxGeometry x="490" y="170" width="120" height="60" as="geometry" />
        </mxCell>
        <mxCell id="XleAL6ZBAnFnf9mCYfTB-25" style="edgeStyle=orthogonalEdgeStyle;rounded=0;orthogonalLoop=1;jettySize=auto;html=1;exitX=0.25;exitY=1;exitDx=0;exitDy=0;entryX=0.5;entryY=1;entryDx=0;entryDy=0;curved=1;dashed=1;" parent="1" source="XleAL6ZBAnFnf9mCYfTB-23" target="XleAL6ZBAnFnf9mCYfTB-22" edge="1">
          <mxGeometry relative="1" as="geometry">
            <Array as="points">
              <mxPoint x="-20" y="110" />
              <mxPoint x="-20" y="320" />
              <mxPoint x="550" y="320" />
            </Array>
          </mxGeometry>
        </mxCell>
        <mxCell id="XleAL6ZBAnFnf9mCYfTB-23" value="Google OAuth" style="rounded=0;whiteSpace=wrap;html=1;" parent="1" vertex="1">
          <mxGeometry x="-50" y="60" width="110" height="50" as="geometry" />
        </mxCell>
        <mxCell id="XleAL6ZBAnFnf9mCYfTB-26" value="implement" style="text;html=1;align=center;verticalAlign=middle;whiteSpace=wrap;rounded=0;" parent="1" vertex="1">
          <mxGeometry x="240" y="330" width="60" height="30" as="geometry" />
        </mxCell>
        <mxCell id="9Bgfrbo9Ds4XW8nlcJ_0-1" style="edgeStyle=orthogonalEdgeStyle;rounded=0;orthogonalLoop=1;jettySize=auto;html=1;exitX=1;exitY=0.5;exitDx=0;exitDy=0;entryX=0;entryY=0.5;entryDx=0;entryDy=0;" edge="1" parent="1" source="BnxMe-KW9RDDtPVmkPUV-1" target="nIXrY3_EinPQ9No2eV4z-2">
          <mxGeometry relative="1" as="geometry" />
        </mxCell>
        <mxCell id="BnxMe-KW9RDDtPVmkPUV-1" value="&lt;b&gt;&lt;font style=&quot;font-size: 18px;&quot;&gt;Request&lt;/font&gt;&lt;/b&gt;" style="text;html=1;align=center;verticalAlign=middle;whiteSpace=wrap;rounded=0;" parent="1" vertex="1">
          <mxGeometry x="-300" y="160" width="110" height="50" as="geometry" />
        </mxCell>
        <mxCell id="9Bgfrbo9Ds4XW8nlcJ_0-2" style="edgeStyle=orthogonalEdgeStyle;rounded=0;orthogonalLoop=1;jettySize=auto;html=1;exitX=1;exitY=0.5;exitDx=0;exitDy=0;entryX=0;entryY=0.5;entryDx=0;entryDy=0;curved=1;" edge="1" parent="1" source="nIXrY3_EinPQ9No2eV4z-2" target="nu3hjA2DukSbiA5tO7RB-4">
          <mxGeometry relative="1" as="geometry" />
        </mxCell>
        <mxCell id="9Bgfrbo9Ds4XW8nlcJ_0-3" style="edgeStyle=orthogonalEdgeStyle;rounded=0;orthogonalLoop=1;jettySize=auto;html=1;exitX=1;exitY=0.5;exitDx=0;exitDy=0;entryX=0;entryY=0.5;entryDx=0;entryDy=0;curved=1;" edge="1" parent="1" source="nIXrY3_EinPQ9No2eV4z-2" target="nu3hjA2DukSbiA5tO7RB-3">
          <mxGeometry relative="1" as="geometry" />
        </mxCell>
        <mxCell id="nIXrY3_EinPQ9No2eV4z-2" value="Middleware" style="rounded=0;whiteSpace=wrap;html=1;" parent="1" vertex="1">
          <mxGeometry x="-40" y="160" width="120" height="50" as="geometry" />
        </mxCell>
      </root>
    </mxGraphModel>
  </diagram>
  <diagram id="gkZHDpTfU5cXxur2pMwY" name="系統架構">
    <mxGraphModel dx="1983" dy="850" grid="1" gridSize="10" guides="1" tooltips="1" connect="1" arrows="1" fold="1" page="1" pageScale="1" pageWidth="827" pageHeight="1169" math="0" shadow="0">
      <root>
        <mxCell id="0" />
        <mxCell id="1" parent="0" />
        <mxCell id="Dfc7MIDH98jCJnMKMIQ--1" value="" style="rounded=0;whiteSpace=wrap;html=1;" vertex="1" parent="1">
          <mxGeometry x="100" y="80" width="810" height="430" as="geometry" />
        </mxCell>
        <mxCell id="Dfc7MIDH98jCJnMKMIQ--31" style="edgeStyle=orthogonalEdgeStyle;rounded=0;orthogonalLoop=1;jettySize=auto;html=1;exitX=1;exitY=0.5;exitDx=0;exitDy=0;entryX=0;entryY=0.5;entryDx=0;entryDy=0;" edge="1" parent="1" source="Dfc7MIDH98jCJnMKMIQ--2" target="Dfc7MIDH98jCJnMKMIQ--9">
          <mxGeometry relative="1" as="geometry" />
        </mxCell>
        <mxCell id="Dfc7MIDH98jCJnMKMIQ--32" style="edgeStyle=orthogonalEdgeStyle;rounded=0;orthogonalLoop=1;jettySize=auto;html=1;exitX=0.5;exitY=1;exitDx=0;exitDy=0;entryX=0.5;entryY=0;entryDx=0;entryDy=0;" edge="1" parent="1" source="Dfc7MIDH98jCJnMKMIQ--2" target="Dfc7MIDH98jCJnMKMIQ--3">
          <mxGeometry relative="1" as="geometry" />
        </mxCell>
        <mxCell id="Dfc7MIDH98jCJnMKMIQ--2" value="Web Svc" style="rounded=0;whiteSpace=wrap;html=1;" vertex="1" parent="1">
          <mxGeometry x="420" y="140" width="120" height="60" as="geometry" />
        </mxCell>
        <mxCell id="Dfc7MIDH98jCJnMKMIQ--30" style="edgeStyle=orthogonalEdgeStyle;rounded=0;orthogonalLoop=1;jettySize=auto;html=1;exitX=1;exitY=0.5;exitDx=0;exitDy=0;entryX=0;entryY=0.5;entryDx=0;entryDy=0;" edge="1" parent="1" source="Dfc7MIDH98jCJnMKMIQ--3" target="Dfc7MIDH98jCJnMKMIQ--7">
          <mxGeometry relative="1" as="geometry" />
        </mxCell>
        <mxCell id="Dfc7MIDH98jCJnMKMIQ--33" style="edgeStyle=orthogonalEdgeStyle;rounded=0;orthogonalLoop=1;jettySize=auto;html=1;exitX=0.5;exitY=1;exitDx=0;exitDy=0;entryX=0.5;entryY=0;entryDx=0;entryDy=0;" edge="1" parent="1" source="Dfc7MIDH98jCJnMKMIQ--3" target="Dfc7MIDH98jCJnMKMIQ--4">
          <mxGeometry relative="1" as="geometry" />
        </mxCell>
        <mxCell id="Dfc7MIDH98jCJnMKMIQ--3" value="App Svc" style="rounded=0;whiteSpace=wrap;html=1;" vertex="1" parent="1">
          <mxGeometry x="420" y="275" width="120" height="60" as="geometry" />
        </mxCell>
        <mxCell id="Dfc7MIDH98jCJnMKMIQ--29" style="edgeStyle=orthogonalEdgeStyle;rounded=0;orthogonalLoop=1;jettySize=auto;html=1;exitX=1;exitY=0.5;exitDx=0;exitDy=0;" edge="1" parent="1" source="Dfc7MIDH98jCJnMKMIQ--4" target="Dfc7MIDH98jCJnMKMIQ--8">
          <mxGeometry relative="1" as="geometry" />
        </mxCell>
        <mxCell id="Dfc7MIDH98jCJnMKMIQ--4" value="MongoDB Svc" style="rounded=0;whiteSpace=wrap;html=1;" vertex="1" parent="1">
          <mxGeometry x="420" y="405" width="120" height="60" as="geometry" />
        </mxCell>
        <mxCell id="Dfc7MIDH98jCJnMKMIQ--6" style="edgeStyle=orthogonalEdgeStyle;rounded=0;orthogonalLoop=1;jettySize=auto;html=1;exitX=1;exitY=0.5;exitDx=0;exitDy=0;entryX=0;entryY=0.5;entryDx=0;entryDy=0;" edge="1" parent="1" source="Dfc7MIDH98jCJnMKMIQ--5" target="Dfc7MIDH98jCJnMKMIQ--2">
          <mxGeometry relative="1" as="geometry" />
        </mxCell>
        <mxCell id="Dfc7MIDH98jCJnMKMIQ--5" value="Ingress&lt;br&gt;only open 443 port" style="rounded=0;whiteSpace=wrap;html=1;" vertex="1" parent="1">
          <mxGeometry x="160" y="260" width="120" height="60" as="geometry" />
        </mxCell>
        <mxCell id="Dfc7MIDH98jCJnMKMIQ--23" style="edgeStyle=orthogonalEdgeStyle;rounded=0;orthogonalLoop=1;jettySize=auto;html=1;exitX=1;exitY=0.5;exitDx=0;exitDy=0;entryX=0;entryY=0.5;entryDx=0;entryDy=0;" edge="1" parent="1" source="Dfc7MIDH98jCJnMKMIQ--7" target="Dfc7MIDH98jCJnMKMIQ--15">
          <mxGeometry relative="1" as="geometry" />
        </mxCell>
        <mxCell id="Dfc7MIDH98jCJnMKMIQ--24" style="edgeStyle=orthogonalEdgeStyle;rounded=0;orthogonalLoop=1;jettySize=auto;html=1;exitX=1;exitY=0.5;exitDx=0;exitDy=0;entryX=0;entryY=0.5;entryDx=0;entryDy=0;" edge="1" parent="1" source="Dfc7MIDH98jCJnMKMIQ--7" target="Dfc7MIDH98jCJnMKMIQ--14">
          <mxGeometry relative="1" as="geometry" />
        </mxCell>
        <mxCell id="Dfc7MIDH98jCJnMKMIQ--25" style="edgeStyle=orthogonalEdgeStyle;rounded=0;orthogonalLoop=1;jettySize=auto;html=1;exitX=1;exitY=0.5;exitDx=0;exitDy=0;entryX=0;entryY=0.5;entryDx=0;entryDy=0;" edge="1" parent="1" source="Dfc7MIDH98jCJnMKMIQ--7" target="Dfc7MIDH98jCJnMKMIQ--16">
          <mxGeometry relative="1" as="geometry" />
        </mxCell>
        <mxCell id="Dfc7MIDH98jCJnMKMIQ--7" value="App Deployment" style="rounded=0;whiteSpace=wrap;html=1;" vertex="1" parent="1">
          <mxGeometry x="580" y="275" width="120" height="60" as="geometry" />
        </mxCell>
        <mxCell id="Dfc7MIDH98jCJnMKMIQ--20" style="edgeStyle=orthogonalEdgeStyle;rounded=0;orthogonalLoop=1;jettySize=auto;html=1;exitX=1;exitY=0.5;exitDx=0;exitDy=0;entryX=0;entryY=0.5;entryDx=0;entryDy=0;" edge="1" parent="1" source="Dfc7MIDH98jCJnMKMIQ--8" target="Dfc7MIDH98jCJnMKMIQ--17">
          <mxGeometry relative="1" as="geometry" />
        </mxCell>
        <mxCell id="Dfc7MIDH98jCJnMKMIQ--21" style="edgeStyle=orthogonalEdgeStyle;rounded=0;orthogonalLoop=1;jettySize=auto;html=1;exitX=1;exitY=0.5;exitDx=0;exitDy=0;entryX=0;entryY=0.5;entryDx=0;entryDy=0;" edge="1" parent="1" source="Dfc7MIDH98jCJnMKMIQ--8" target="Dfc7MIDH98jCJnMKMIQ--18">
          <mxGeometry relative="1" as="geometry" />
        </mxCell>
        <mxCell id="Dfc7MIDH98jCJnMKMIQ--22" style="edgeStyle=orthogonalEdgeStyle;rounded=0;orthogonalLoop=1;jettySize=auto;html=1;exitX=1;exitY=0.5;exitDx=0;exitDy=0;entryX=0;entryY=0.5;entryDx=0;entryDy=0;" edge="1" parent="1" source="Dfc7MIDH98jCJnMKMIQ--8" target="Dfc7MIDH98jCJnMKMIQ--19">
          <mxGeometry relative="1" as="geometry" />
        </mxCell>
        <mxCell id="Dfc7MIDH98jCJnMKMIQ--8" value="MongoDB Deployment" style="rounded=0;whiteSpace=wrap;html=1;" vertex="1" parent="1">
          <mxGeometry x="580" y="405" width="120" height="60" as="geometry" />
        </mxCell>
        <mxCell id="Dfc7MIDH98jCJnMKMIQ--26" style="edgeStyle=orthogonalEdgeStyle;rounded=0;orthogonalLoop=1;jettySize=auto;html=1;exitX=1;exitY=0.5;exitDx=0;exitDy=0;entryX=0;entryY=0.5;entryDx=0;entryDy=0;" edge="1" parent="1" source="Dfc7MIDH98jCJnMKMIQ--9" target="Dfc7MIDH98jCJnMKMIQ--10">
          <mxGeometry relative="1" as="geometry" />
        </mxCell>
        <mxCell id="Dfc7MIDH98jCJnMKMIQ--27" style="edgeStyle=orthogonalEdgeStyle;rounded=0;orthogonalLoop=1;jettySize=auto;html=1;exitX=1;exitY=0.5;exitDx=0;exitDy=0;entryX=0;entryY=0.5;entryDx=0;entryDy=0;" edge="1" parent="1" source="Dfc7MIDH98jCJnMKMIQ--9" target="Dfc7MIDH98jCJnMKMIQ--11">
          <mxGeometry relative="1" as="geometry" />
        </mxCell>
        <mxCell id="Dfc7MIDH98jCJnMKMIQ--28" style="edgeStyle=orthogonalEdgeStyle;rounded=0;orthogonalLoop=1;jettySize=auto;html=1;exitX=1;exitY=0.5;exitDx=0;exitDy=0;entryX=0;entryY=0.5;entryDx=0;entryDy=0;" edge="1" parent="1" source="Dfc7MIDH98jCJnMKMIQ--9" target="Dfc7MIDH98jCJnMKMIQ--12">
          <mxGeometry relative="1" as="geometry" />
        </mxCell>
        <mxCell id="Dfc7MIDH98jCJnMKMIQ--9" value="Web Deployment" style="rounded=0;whiteSpace=wrap;html=1;" vertex="1" parent="1">
          <mxGeometry x="580" y="140" width="120" height="60" as="geometry" />
        </mxCell>
        <mxCell id="Dfc7MIDH98jCJnMKMIQ--10" value="Pod" style="rounded=0;whiteSpace=wrap;html=1;" vertex="1" parent="1">
          <mxGeometry x="780" y="115" width="70" height="30" as="geometry" />
        </mxCell>
        <mxCell id="Dfc7MIDH98jCJnMKMIQ--11" value="Pod" style="rounded=0;whiteSpace=wrap;html=1;" vertex="1" parent="1">
          <mxGeometry x="780" y="155" width="70" height="30" as="geometry" />
        </mxCell>
        <mxCell id="Dfc7MIDH98jCJnMKMIQ--12" value="Pod" style="rounded=0;whiteSpace=wrap;html=1;" vertex="1" parent="1">
          <mxGeometry x="780" y="195" width="70" height="30" as="geometry" />
        </mxCell>
        <mxCell id="Dfc7MIDH98jCJnMKMIQ--14" value="Pod" style="rounded=0;whiteSpace=wrap;html=1;" vertex="1" parent="1">
          <mxGeometry x="780" y="250" width="70" height="30" as="geometry" />
        </mxCell>
        <mxCell id="Dfc7MIDH98jCJnMKMIQ--15" value="Pod" style="rounded=0;whiteSpace=wrap;html=1;" vertex="1" parent="1">
          <mxGeometry x="780" y="290" width="70" height="30" as="geometry" />
        </mxCell>
        <mxCell id="Dfc7MIDH98jCJnMKMIQ--16" value="Pod" style="rounded=0;whiteSpace=wrap;html=1;" vertex="1" parent="1">
          <mxGeometry x="780" y="330" width="70" height="30" as="geometry" />
        </mxCell>
        <mxCell id="Dfc7MIDH98jCJnMKMIQ--17" value="Pod" style="rounded=0;whiteSpace=wrap;html=1;" vertex="1" parent="1">
          <mxGeometry x="780" y="380" width="70" height="30" as="geometry" />
        </mxCell>
        <mxCell id="Dfc7MIDH98jCJnMKMIQ--18" value="Pod" style="rounded=0;whiteSpace=wrap;html=1;" vertex="1" parent="1">
          <mxGeometry x="780" y="420" width="70" height="30" as="geometry" />
        </mxCell>
        <mxCell id="Dfc7MIDH98jCJnMKMIQ--19" value="Pod" style="rounded=0;whiteSpace=wrap;html=1;" vertex="1" parent="1">
          <mxGeometry x="780" y="460" width="70" height="30" as="geometry" />
        </mxCell>
        <mxCell id="Dfc7MIDH98jCJnMKMIQ--35" style="edgeStyle=orthogonalEdgeStyle;rounded=0;orthogonalLoop=1;jettySize=auto;html=1;exitX=1;exitY=0.5;exitDx=0;exitDy=0;entryX=0;entryY=0.5;entryDx=0;entryDy=0;" edge="1" parent="1" source="Dfc7MIDH98jCJnMKMIQ--34" target="Dfc7MIDH98jCJnMKMIQ--5">
          <mxGeometry relative="1" as="geometry" />
        </mxCell>
        <mxCell id="Dfc7MIDH98jCJnMKMIQ--34" value="&lt;font style=&quot;font-size: 18px;&quot;&gt;User&lt;/font&gt;" style="ellipse;whiteSpace=wrap;html=1;aspect=fixed;" vertex="1" parent="1">
          <mxGeometry x="-160" y="235" width="110" height="110" as="geometry" />
        </mxCell>
        <mxCell id="75AYRYXbRjHyiWWsLwWO-1" value="&lt;font size=&quot;1&quot; color=&quot;#808080&quot; style=&quot;&quot;&gt;&lt;i style=&quot;&quot;&gt;&lt;b style=&quot;font-size: 16px;&quot;&gt;K8s Node(VM)&lt;/b&gt;&lt;/i&gt;&lt;/font&gt;" style="rounded=0;whiteSpace=wrap;html=1;" vertex="1" parent="1">
          <mxGeometry x="120" y="465" width="140" height="30" as="geometry" />
        </mxCell>
      </root>
    </mxGraphModel>
  </diagram>
</mxfile>
